# xmcd CD database file
#
# Track frame offsets:
#	150
#	19532
#	63722
#	83015
#	124980
#
# Disc length: 2265 seconds
#
# Revision: 0
# Processed by: cddbd v1.4PL0 Copyright (c) Steve Scherf et al.
# Submitted via: CDex 1.51
#
DISCID=3a08d705
DTITLE=Tchangodei and Archie Shepp - Ginseng
DYEAR=1900
DGENRE=Jazz
TTITLE0=Una noche con Francis
TTITLE1=Soweto
TTITLE2=Ginseng
TTITLE3=Mavichavel
TTITLE4=Regard
EXTD=
EXTT0=
EXTT1=
EXTT2=
EXTT3=
EXTT4=
PLAYORDER=
